{
  "accessors": [
    {
      "bufferView": 2,
      "componentType": 5126,
      "count": 3136,
      "max": [
        0.23510000109672546,
        0.47091999650001526,
        1.0087720155715942
      ],
      "min": [
        -0.21468029916286469,
        -1.1077990531921387,
        -0.06473390012979507
      ],
      "type": "VEC3"
    },
    {
      "bufferView": 2,
      "byteOffset": 37632,
      "componentType": 5126,
      "count": 3136,
      "max": [
        0.9999544024467468,
        0.9983810186386108,
        0.9985207915306091
      ],
      "min": [
        -0.9999533295631409,
        -0.9990037083625793,
        -0.9999375939369202
      ],
      "type": "VEC3"
    },
    {
      "bufferView": 3,
      "componentType": 5126,
      "count": 3136,
      "max": [
        0.9997408390045166,
        0.9997493028640747,
        0.9972217082977295,
        1.0
      ],
      "min": [
        -0.9997333884239197,
        -0.9999701380729675,
        -0.9990037083625793,
        -1.0
      ],
      "type": "VEC4"
    },
    {
      "bufferView": 1,
      "componentType": 5126,
      "count": 3136,
      "max": [
        -15.005760192871094,
        16.993370056152344
      ],
      "min": [
        -15.998760223388672,
        16.002029418945313
      ],
      "type": "VEC2"
    },
    {
      "bufferView": 0,
      "componentType": 5125,
      "count": 14628,
      "type": "SCALAR"
    }
  ],
  "asset": {
    "extras": {
      "author": "Otherspectre (https://sketchfab.com/Otherspectre)",
      "license": "CC-BY-4.0 (http://creativecommons.org/licenses/by/4.0/)",
      "source": "https://sketchfab.com/3d-models/custom-cheetah-45dd873cc0b84837a441eb34abaeef64",
      "title": "Custom - Cheetah"
    },
    "generator": "Sketchfab-16.75.0",
    "version": "2.0"
  },
  "bufferViews": [
    {
      "buffer": 0,
      "byteLength": 58512,
      "name": "floatBufferViews",
      "target": 34963
    },
    {
      "buffer": 0,
      "byteLength": 25088,
      "byteOffset": 58512,
      "byteStride": 8,
      "name": "floatBufferViews",
      "target": 34962
    },
    {
      "buffer": 0,
      "byteLength": 75264,
      "byteOffset": 83600,
      "byteStride": 12,
      "name": "floatBufferViews",
      "target": 34962
    },
    {
      "buffer": 0,
      "byteLength": 50176,
      "byteOffset": 158864,
      "byteStride": 16,
      "name": "floatBufferViews",
      "target": 34962
    }
  ],
  "buffers": [
    {
      "byteLength": 209040,
      "uri": "scene.bin"
    }
  ],
  "images": [
    {
      "uri": "textures/Model001_Material001_baseColor.png"
    },
    {
      "uri": "textures/Model001_Material001_normal.png"
    }
  ],
  "materials": [
    {
      "alphaCutoff": 0.7466765268957943,
      "alphaMode": "MASK",
      "doubleSided": true,
      "name": "Model001_Material001",
      "normalTexture": {
        "index": 1
      },
      "pbrMetallicRoughness": {
        "baseColorTexture": {
          "index": 0
        },
        "metallicFactor": 0.0,
        "roughnessFactor": 0.45373279395952837
      }
    }
  ],
  "meshes": [
    {
      "name": "Object_0",
      "primitives": [
        {
          "attributes": {
            "NORMAL": 1,
            "POSITION": 0,
            "TANGENT": 2,
            "TEXCOORD_0": 3
          },
          "indices": 4,
          "material": 0,
          "mode": 4
        }
      ]
    }
  ],
  "nodes": [
    {
      "children": [
        1
      ],
      "matrix": [
        1.0,
        0.0,
        0.0,
        0.0,
        0.0,
        2.220446049250313e-16,
        -1.0,
        0.0,
        0.0,
        1.0,
        2.220446049250313e-16,
        0.0,
        0.0,
        0.0,
        0.0,
        1.0
      ],
      "name": "Sketchfab_model"
    },
    {
      "children": [
        2
      ],
      "name": "display.obj.cleaner.materialmerger.gles"
    },
    {
      "mesh": 0,
      "name": "Object_2"
    }
  ],
  "samplers": [
    {
      "magFilter": 9729,
      "minFilter": 9987,
      "wrapS": 10497,
      "wrapT": 10497
    }
  ],
  "scene": 0,
  "scenes": [
    {
      "name": "Sketchfab_Scene",
      "nodes": [
        0
      ]
    }
  ],
  "textures": [
    {
      "sampler": 0,
      "source": 0
    },
    {
      "sampler": 0,
      "source": 1
    }
  ]
}
